<mxfile host="app.diagrams.net" agent="Mozilla/5.0 (Windows NT 10.0; Win64; x64) AppleWebKit/537.36 (KHTML, like Gecko) Chrome/138.0.0.0 Safari/537.36" version="28.1.0">
  <diagram name="Page-1" id="d9OYXY2DAnLTnAryWi00">
    <mxGraphModel dx="2009" dy="439" grid="1" gridSize="10" guides="1" tooltips="1" connect="1" arrows="1" fold="1" page="1" pageScale="1" pageWidth="850" pageHeight="1100" math="0" shadow="0">
      <root>
        <mxCell id="0" />
        <mxCell id="1" parent="0" />
        <mxCell id="vgbTzSenKX71BNy12q-t-5" style="edgeStyle=orthogonalEdgeStyle;rounded=0;orthogonalLoop=1;jettySize=auto;html=1;entryX=0.5;entryY=0;entryDx=0;entryDy=0;" edge="1" parent="1" source="vgbTzSenKX71BNy12q-t-1" target="vgbTzSenKX71BNy12q-t-2">
          <mxGeometry relative="1" as="geometry" />
        </mxCell>
        <mxCell id="vgbTzSenKX71BNy12q-t-1" value="Start" style="ellipse;whiteSpace=wrap;html=1;" vertex="1" parent="1">
          <mxGeometry x="180" y="50" width="120" height="80" as="geometry" />
        </mxCell>
        <mxCell id="vgbTzSenKX71BNy12q-t-6" style="edgeStyle=orthogonalEdgeStyle;rounded=0;orthogonalLoop=1;jettySize=auto;html=1;entryX=0.5;entryY=0;entryDx=0;entryDy=0;" edge="1" parent="1" source="vgbTzSenKX71BNy12q-t-2" target="vgbTzSenKX71BNy12q-t-3">
          <mxGeometry relative="1" as="geometry" />
        </mxCell>
        <mxCell id="vgbTzSenKX71BNy12q-t-10" style="edgeStyle=orthogonalEdgeStyle;rounded=0;orthogonalLoop=1;jettySize=auto;html=1;entryX=1;entryY=0.5;entryDx=0;entryDy=0;" edge="1" parent="1" source="vgbTzSenKX71BNy12q-t-2" target="vgbTzSenKX71BNy12q-t-1">
          <mxGeometry relative="1" as="geometry">
            <Array as="points">
              <mxPoint x="400" y="210" />
              <mxPoint x="400" y="90" />
            </Array>
          </mxGeometry>
        </mxCell>
        <mxCell id="vgbTzSenKX71BNy12q-t-11" value="No" style="edgeLabel;html=1;align=center;verticalAlign=middle;resizable=0;points=[];" vertex="1" connectable="0" parent="vgbTzSenKX71BNy12q-t-10">
          <mxGeometry x="0.1188" y="-2" relative="1" as="geometry">
            <mxPoint as="offset" />
          </mxGeometry>
        </mxCell>
        <mxCell id="vgbTzSenKX71BNy12q-t-2" value="Read Current Time" style="rounded=0;whiteSpace=wrap;html=1;" vertex="1" parent="1">
          <mxGeometry x="180" y="150" width="120" height="60" as="geometry" />
        </mxCell>
        <mxCell id="vgbTzSenKX71BNy12q-t-8" style="edgeStyle=orthogonalEdgeStyle;rounded=0;orthogonalLoop=1;jettySize=auto;html=1;entryX=0.5;entryY=0;entryDx=0;entryDy=0;" edge="1" parent="1" source="vgbTzSenKX71BNy12q-t-3" target="vgbTzSenKX71BNy12q-t-7">
          <mxGeometry relative="1" as="geometry" />
        </mxCell>
        <mxCell id="vgbTzSenKX71BNy12q-t-9" value="Yes" style="edgeLabel;html=1;align=center;verticalAlign=middle;resizable=0;points=[];" vertex="1" connectable="0" parent="vgbTzSenKX71BNy12q-t-8">
          <mxGeometry x="-0.2667" y="2" relative="1" as="geometry">
            <mxPoint as="offset" />
          </mxGeometry>
        </mxCell>
        <mxCell id="vgbTzSenKX71BNy12q-t-3" value="Time = Feeding Schedule?" style="rhombus;whiteSpace=wrap;html=1;" vertex="1" parent="1">
          <mxGeometry x="120" y="230" width="240" height="80" as="geometry" />
        </mxCell>
        <mxCell id="vgbTzSenKX71BNy12q-t-14" style="edgeStyle=orthogonalEdgeStyle;rounded=0;orthogonalLoop=1;jettySize=auto;html=1;entryX=0.5;entryY=0;entryDx=0;entryDy=0;" edge="1" parent="1" source="vgbTzSenKX71BNy12q-t-7" target="vgbTzSenKX71BNy12q-t-13">
          <mxGeometry relative="1" as="geometry" />
        </mxCell>
        <mxCell id="vgbTzSenKX71BNy12q-t-7" value="Check Food Bm Level" style="rounded=0;whiteSpace=wrap;html=1;" vertex="1" parent="1">
          <mxGeometry x="160" y="350" width="160" height="60" as="geometry" />
        </mxCell>
        <mxCell id="vgbTzSenKX71BNy12q-t-16" style="edgeStyle=orthogonalEdgeStyle;rounded=0;orthogonalLoop=1;jettySize=auto;html=1;entryX=1;entryY=0.5;entryDx=0;entryDy=0;" edge="1" parent="1" source="vgbTzSenKX71BNy12q-t-13" target="vgbTzSenKX71BNy12q-t-15">
          <mxGeometry relative="1" as="geometry" />
        </mxCell>
        <mxCell id="vgbTzSenKX71BNy12q-t-17" value="Yes" style="edgeLabel;html=1;align=center;verticalAlign=middle;resizable=0;points=[];" vertex="1" connectable="0" parent="vgbTzSenKX71BNy12q-t-16">
          <mxGeometry x="-0.04" relative="1" as="geometry">
            <mxPoint as="offset" />
          </mxGeometry>
        </mxCell>
        <mxCell id="vgbTzSenKX71BNy12q-t-21" style="edgeStyle=orthogonalEdgeStyle;rounded=0;orthogonalLoop=1;jettySize=auto;html=1;entryX=0.5;entryY=0;entryDx=0;entryDy=0;" edge="1" parent="1" source="vgbTzSenKX71BNy12q-t-13" target="vgbTzSenKX71BNy12q-t-19">
          <mxGeometry relative="1" as="geometry" />
        </mxCell>
        <mxCell id="vgbTzSenKX71BNy12q-t-22" value="No" style="edgeLabel;html=1;align=center;verticalAlign=middle;resizable=0;points=[];" vertex="1" connectable="0" parent="vgbTzSenKX71BNy12q-t-21">
          <mxGeometry x="0.24" y="2" relative="1" as="geometry">
            <mxPoint as="offset" />
          </mxGeometry>
        </mxCell>
        <mxCell id="vgbTzSenKX71BNy12q-t-13" value="Food Level &amp;lt; 15%" style="rhombus;whiteSpace=wrap;html=1;" vertex="1" parent="1">
          <mxGeometry x="160" y="440" width="160" height="80" as="geometry" />
        </mxCell>
        <mxCell id="vgbTzSenKX71BNy12q-t-15" value="Send &quot;Low Food Level&quot; alert" style="rounded=0;whiteSpace=wrap;html=1;" vertex="1" parent="1">
          <mxGeometry x="-10" y="450" width="120" height="60" as="geometry" />
        </mxCell>
        <mxCell id="vgbTzSenKX71BNy12q-t-18" style="edgeStyle=orthogonalEdgeStyle;rounded=0;orthogonalLoop=1;jettySize=auto;html=1;entryX=0;entryY=0.5;entryDx=0;entryDy=0;" edge="1" parent="1" source="vgbTzSenKX71BNy12q-t-15" target="vgbTzSenKX71BNy12q-t-1">
          <mxGeometry relative="1" as="geometry">
            <mxPoint x="160" y="100" as="targetPoint" />
            <Array as="points">
              <mxPoint x="50" y="90" />
            </Array>
          </mxGeometry>
        </mxCell>
        <mxCell id="vgbTzSenKX71BNy12q-t-23" style="edgeStyle=orthogonalEdgeStyle;rounded=0;orthogonalLoop=1;jettySize=auto;html=1;entryX=0.5;entryY=0;entryDx=0;entryDy=0;" edge="1" parent="1" source="vgbTzSenKX71BNy12q-t-19" target="vgbTzSenKX71BNy12q-t-20">
          <mxGeometry relative="1" as="geometry" />
        </mxCell>
        <mxCell id="vgbTzSenKX71BNy12q-t-19" value="Dispense Food" style="rounded=0;whiteSpace=wrap;html=1;" vertex="1" parent="1">
          <mxGeometry x="180" y="560" width="120" height="60" as="geometry" />
        </mxCell>
        <mxCell id="vgbTzSenKX71BNy12q-t-26" style="edgeStyle=orthogonalEdgeStyle;rounded=0;orthogonalLoop=1;jettySize=auto;html=1;entryX=0.5;entryY=0;entryDx=0;entryDy=0;" edge="1" parent="1" source="vgbTzSenKX71BNy12q-t-20" target="vgbTzSenKX71BNy12q-t-25">
          <mxGeometry relative="1" as="geometry" />
        </mxCell>
        <mxCell id="vgbTzSenKX71BNy12q-t-20" value="Record Bowl Weight" style="rounded=0;whiteSpace=wrap;html=1;" vertex="1" parent="1">
          <mxGeometry x="180" y="650" width="120" height="60" as="geometry" />
        </mxCell>
        <mxCell id="vgbTzSenKX71BNy12q-t-29" style="edgeStyle=orthogonalEdgeStyle;rounded=0;orthogonalLoop=1;jettySize=auto;html=1;entryX=0.5;entryY=0;entryDx=0;entryDy=0;" edge="1" parent="1" source="vgbTzSenKX71BNy12q-t-24" target="vgbTzSenKX71BNy12q-t-28">
          <mxGeometry relative="1" as="geometry" />
        </mxCell>
        <mxCell id="vgbTzSenKX71BNy12q-t-24" value="Record Bowl Weight" style="rounded=0;whiteSpace=wrap;html=1;" vertex="1" parent="1">
          <mxGeometry x="180" y="830" width="120" height="60" as="geometry" />
        </mxCell>
        <mxCell id="vgbTzSenKX71BNy12q-t-27" style="edgeStyle=orthogonalEdgeStyle;rounded=0;orthogonalLoop=1;jettySize=auto;html=1;entryX=0.5;entryY=0;entryDx=0;entryDy=0;" edge="1" parent="1" source="vgbTzSenKX71BNy12q-t-25" target="vgbTzSenKX71BNy12q-t-24">
          <mxGeometry relative="1" as="geometry" />
        </mxCell>
        <mxCell id="vgbTzSenKX71BNy12q-t-25" value="Wait 10 Mins" style="rounded=0;whiteSpace=wrap;html=1;" vertex="1" parent="1">
          <mxGeometry x="180" y="740" width="120" height="60" as="geometry" />
        </mxCell>
        <mxCell id="vgbTzSenKX71BNy12q-t-32" style="edgeStyle=orthogonalEdgeStyle;rounded=0;orthogonalLoop=1;jettySize=auto;html=1;entryX=0.5;entryY=0;entryDx=0;entryDy=0;" edge="1" parent="1" source="vgbTzSenKX71BNy12q-t-28" target="vgbTzSenKX71BNy12q-t-31">
          <mxGeometry relative="1" as="geometry" />
        </mxCell>
        <mxCell id="vgbTzSenKX71BNy12q-t-35" value="No" style="edgeLabel;html=1;align=center;verticalAlign=middle;resizable=0;points=[];" vertex="1" connectable="0" parent="vgbTzSenKX71BNy12q-t-32">
          <mxGeometry x="0.1" y="-2" relative="1" as="geometry">
            <mxPoint as="offset" />
          </mxGeometry>
        </mxCell>
        <mxCell id="vgbTzSenKX71BNy12q-t-34" style="edgeStyle=orthogonalEdgeStyle;rounded=0;orthogonalLoop=1;jettySize=auto;html=1;entryX=0.5;entryY=0;entryDx=0;entryDy=0;" edge="1" parent="1" source="vgbTzSenKX71BNy12q-t-28" target="vgbTzSenKX71BNy12q-t-33">
          <mxGeometry relative="1" as="geometry" />
        </mxCell>
        <mxCell id="vgbTzSenKX71BNy12q-t-36" value="Yes" style="edgeLabel;html=1;align=center;verticalAlign=middle;resizable=0;points=[];" vertex="1" connectable="0" parent="vgbTzSenKX71BNy12q-t-34">
          <mxGeometry x="0.0267" y="-2" relative="1" as="geometry">
            <mxPoint as="offset" />
          </mxGeometry>
        </mxCell>
        <mxCell id="vgbTzSenKX71BNy12q-t-28" value="Weight Drop &amp;gt; Threshold?" style="rhombus;whiteSpace=wrap;html=1;" vertex="1" parent="1">
          <mxGeometry x="120" y="920" width="240" height="80" as="geometry" />
        </mxCell>
        <mxCell id="vgbTzSenKX71BNy12q-t-38" style="edgeStyle=orthogonalEdgeStyle;rounded=0;orthogonalLoop=1;jettySize=auto;html=1;" edge="1" parent="1" source="vgbTzSenKX71BNy12q-t-31" target="vgbTzSenKX71BNy12q-t-37">
          <mxGeometry relative="1" as="geometry" />
        </mxCell>
        <mxCell id="vgbTzSenKX71BNy12q-t-31" value="Send &quot;Food not Eaten&quot; alert" style="rounded=0;whiteSpace=wrap;html=1;" vertex="1" parent="1">
          <mxGeometry x="60" y="1040" width="120" height="60" as="geometry" />
        </mxCell>
        <mxCell id="vgbTzSenKX71BNy12q-t-39" style="edgeStyle=orthogonalEdgeStyle;rounded=0;orthogonalLoop=1;jettySize=auto;html=1;entryX=0.5;entryY=0;entryDx=0;entryDy=0;" edge="1" parent="1" source="vgbTzSenKX71BNy12q-t-33" target="vgbTzSenKX71BNy12q-t-37">
          <mxGeometry relative="1" as="geometry" />
        </mxCell>
        <mxCell id="vgbTzSenKX71BNy12q-t-33" value="Log &quot;Feed Success&quot;" style="rounded=0;whiteSpace=wrap;html=1;" vertex="1" parent="1">
          <mxGeometry x="290" y="1040" width="120" height="60" as="geometry" />
        </mxCell>
        <mxCell id="vgbTzSenKX71BNy12q-t-37" value="End" style="ellipse;whiteSpace=wrap;html=1;" vertex="1" parent="1">
          <mxGeometry x="180" y="1150" width="120" height="80" as="geometry" />
        </mxCell>
      </root>
    </mxGraphModel>
  </diagram>
</mxfile>
